<?xml version="1.0" standalone="no"?>
<!DOCTYPE svg PUBLIC "-//W3C//DTD SVG 20010904//EN"
 "http://www.w3.org/TR/2001/REC-SVG-20010904/DTD/svg10.dtd">
<svg version="1.0" xmlns="http://www.w3.org/2000/svg"
 width="16.000000pt" height="16.000000pt" viewBox="0 0 16.000000 16.000000"
 preserveAspectRatio="xMidYMid meet">

<g transform="translate(0.000000,16.000000) scale(0.100000,-0.100000)"
fill="#000000" stroke="none">
<path d="M4 147 c-3 -8 -4 -43 -2 -78 l3 -64 75 0 75 0 0 75 0 75 -73 3 c-55
2 -74 -1 -78 -11z m81 -67 c-9 -28 -19 -50 -21 -48 -2 2 4 27 13 56 9 28 19
50 21 47 2 -2 -4 -27 -13 -55z m-50 20 c-15 -17 -16 -22 -4 -37 12 -17 12 -17
-6 -1 -18 17 -18 18 0 38 10 11 20 20 23 20 3 0 -3 -9 -13 -20z m100 -37 c-18
-17 -18 -17 -6 0 12 15 11 21 -5 40 l-18 22 24 -22 c24 -23 24 -23 5 -40z"/>
</g>
</svg>
